:SAMPLES-PER-SECOND 30
:FRAME-RANGE 1-1770
:FULLY-SPECIFIED
:DEGREES
1660
root  -52.0592 36.3324 -52.3682 17.6194 61.146 17.0403
RightUpLeg  -41.4546 -20.1403 2.9295
RightLeg  66.1461 -5.22337 -13.3796
RightFoot  -8.235 -0.235193 6.59976
RightToes  6.35937e-011 1.2921e-014 -6.02303e-014
Spine  14.1491 0.521719 -10.7187
Spine1  -1.06517 0.62444 -6.60752
HEad  -8.68112 -15.4066 10.1808
LeftShoulder1  2.38618 -4.44007 -23.8091
LeftArm  6.17843 -54.0243 -40.1242
LeftForeArm  13.1479 0.833509 -18.4888
LeftHand  0.103557 -1.67201 -1.55997
RightShoulder  15.1055 28.5503 40.6149
RightArm  14.9785 23.3838 17.9017
RightForeArm  9.92325 23.311 4.53175
RightHand  -0.422507 3.78844 -5.60084
LeftUpLeg  -12.5874 8.48479 2.79412
LeftLeg  37.1573 -4.61695 -3.35348
LeftFoot  -26.4382 -1.64784 -13.5778
LeftToes  3.18074e-010 1.39432e-010 -7.71186e-011
1661
root  -50.8698 36.4249 -51.7394 16.8936 61.1883 15.515
RightUpLeg  -45.7304 -22.0011 4.58257
RightLeg  55.2469 -9.08833 -14.1591
RightFoot  -8.89166 -0.174936 5.35041
RightToes  6.35937e-011 1.2921e-014 -6.02303e-014
Spine  14.9609 -0.24733 -10.0782
Spine1  -1.26907 -0.391022 -4.54779
HEad  -10.6777 -14.3553 9.58028
LeftShoulder1  2.39841 -5.13432 -21.4064
LeftArm  7.656 -60.6405 -47.0962
LeftForeArm  17.3096 0.383811 -18.0569
LeftHand  0.0640481 -2.0095 -0.83687
RightShoulder  14.3766 31.2702 34.9325
RightArm  5.27103 27.4056 16.1567
RightForeArm  12.321 23.2341 4.40415
RightHand  -0.503036 3.5136 -6.80318
LeftUpLeg  -9.85789 8.86127 3.83815
LeftLeg  35.1109 -4.95183 -3.35493
LeftFoot  -27.215 -1.71931 -13.451
LeftToes  3.18074e-010 1.39432e-010 -7.71186e-011
1662
root  -49.6297 36.5401 -50.9918 17.2452 61.5874 14.7585
RightUpLeg  -47.6223 -23.9813 5.70776
RightLeg  40.1193 -11.2519 -10.2553
RightFoot  -6.759 -0.254681 5.21167
RightToes  6.35937e-011 1.2921e-014 -6.02303e-014
Spine  15.3079 -0.950262 -9.31342
Spine1  -1.17491 -1.30224 -2.78946
HEad  -12.7251 -14.0433 9.29667
LeftShoulder1  2.33736 -5.72644 -18.7906
LeftArm  12.4496 -67.02 -56.9446
LeftForeArm  20.3846 -0.169875 -17.6659
LeftHand  0.0301947 -2.13686 -0.287792
RightShoulder  12.8599 32.9233 28.8175
RightArm  -4.40555 31.3288 13.6392
RightForeArm  15.0981 22.9724 4.2718
RightHand  -0.605096 3.19118 -8.41312
LeftUpLeg  -6.96142 9.42285 4.80404
LeftLeg  31.953 -5.81009 -3.53465
LeftFoot  -27.4309 -1.74237 -13.4401
LeftToes  3.18074e-010 1.39432e-010 -7.71186e-011
1663
root  -48.2597 36.5833 -50.0437 19.618 62.2827 15.8061
RightUpLeg  -47.8964 -26.4046 6.3545
RightLeg  23.243 -11.2329 -5.44987
RightFoot  -5.33746 -0.350858 5.99093
RightToes  6.35937e-011 1.2921e-014 -6.02303e-014
Spine  15.0277 -1.66706 -8.9676
Spine1  -1.28493 -2.15777 -1.47357
HEad  -14.4661 -14.4621 8.88309
LeftShoulder1  2.2531 -6.30883 -16.2316
LeftArm  20.097 -72.4498 -70.9761
LeftForeArm  24.4274 -0.274097 -17.1411
LeftHand  0.0123827 -2.33538 0.00448732
RightShoulder  11.0155 34.1436 22.5169
RightArm  -14.7085 34.0882 10.5871
RightForeArm  18.5815 21.9031 4.29465
RightHand  -0.701457 3.17615 -9.72636
LeftUpLeg  -3.98893 9.73985 5.24123
LeftLeg  28.0867 -6.98549 -3.67938
LeftFoot  -27.2581 -1.79637 -13.9604
LeftToes  3.18074e-010 1.39432e-010 -7.71186e-011
1664
root  -46.7346 36.5551 -48.8722 23.1299 63.123 18.1509
RightUpLeg  -43.3049 -21.523 -2.63934
RightLeg  9.99536 -22.0699 -0.131444
RightFoot  -4.83798 -0.31056 4.88255
RightToes  6.35937e-011 1.2921e-014 -6.02303e-014
Spine  14.6514 -2.74195 -8.41864
Spine1  -1.82698 -3.1539 -1.18391
HEad  -15.9439 -14.871 8.23241
LeftShoulder1  2.11622 -6.8273 -13.5183
LeftArm  31.9982 -76.435 -89.3699
LeftForeArm  28.5572 -0.377543 -16.4725
LeftHand  -0.0223718 -2.45206 0.529953
RightShoulder  9.02261 34.7877 16.441
RightArm  -24.8725 36.6409 7.76696
RightForeArm  23.6357 19.5324 4.88403
RightHand  -0.811795 3.24005 -11.1328
LeftUpLeg  -0.857575 8.46109 5.2622
LeftLeg  24.2512 -7.18765 -3.18791
LeftFoot  -26.1384 -1.89616 -15.7232
LeftToes  3.18074e-010 1.39432e-010 -7.71186e-011
